# xmcd
#
# Track frame offsets:
#	150
#	15070
#	28258
#	45634
#	62747
#	77243
#	89129
#	105630
#	120691
#	136282
#	150987
#	165853
#	180977
#
# Disc length: 2592 seconds
# Revision: 0
# Processed by: cddbd v1.5.2PL0 Copyright (c) Steve Scherf et al.
# Submitted via: dBpowerAMP V12.0
#
DISCID=950a1e0d
DTITLE=Sandra Piller - Kindred Spirits
DYEAR=2009
DGENRE=Country
TTITLE0=I Could Get Used to You
TTITLE1=Same Old You
TTITLE2=Redemption
TTITLE3=What Am I Suppused to Do
TTITLE4=The Little Devil in You
TTITLE5=The First Thing Ev`ry Morning
TTITLE6=Bottom Line
TTITLE7=Kindred Spirits
TTITLE8=Cold Wind Blowing
TTITLE9=Shadows On the Wall
TTITLE10=Fork in the Road
TTITLE11=Fallen Angel
TTITLE12=Get On the Heavenly Road
EXTD=
EXTT0=
EXTT1=
EXTT2=
EXTT3=
EXTT4=
EXTT5=
EXTT6=
EXTT7=
EXTT8=
EXTT9=
EXTT10=
EXTT11=
EXTT12=
PLAYORDER=
